# xmcd
#
# Track frame offsets:
#	151
#	12928
#	33571
#	52379
#	69556
#	84690
#	103963
#	117827
#	132784
#	153427
#	178830
#	196845
#	214329
#	231533
#	246092
#	261162
#	275604
#	288753
#	301820
#	313123
#
# Disc length: 4412
#
# Revision: 4
# Processed by: cddbd v1.5.1PL0 Copyright (c) Steve Scherf et al.
# Submitted via: OrangeCD 5.2
# Normalized: r3:DSETVAR1
#
DISCID=30113a14
DTITLE=Various Artist - Line Dance Fever 8
DYEAR=1999
DGENRE=Country
TTITLE0=BR5-49 - Seven Nights to rock
TTITLE1=Tractors - Poor boy shuffle
TTITLE2=War - Cinco de Mayo
TTITLE3=The Blackout all Stars - I like it like that
TTITLE4=Carboo - A taste of Boogie
TTITLE5=The Bellamy Brothers - Almost Jamaica
TTITLE6=Eddy Raven - Jambalaya
TTITLE7=Scooter Lee - Baby please come home
TTITLE8=Scott Rouse - Howdy
TTITLE9=Sean Kenny - 1999
TTITLE10=Dario G. - Carnaval de Paris
TTITLE11=Bus Stop - Kung Fu Fighting
TTITLE12=Engelbert Humperdinck - Spanish Eyes
TTITLE13=Line Dance Heaven - Elvis Rhumba
TTITLE14=Newton - All out of love
TTITLE15=Shane Mcanally - Say Anything
TTITLE16=Ken Mellons - Bundle of Nerves
TTITLE17=Sawyer Brown - Six days on the Road
TTITLE18=Junior Brown - Looking for love
TTITLE19=Sporran Brothers - Amazing Grace
EXTD=
EXTT0=192 bpm
EXTT1=143 bpm
EXTT2=134bpm
EXTT3=128bpm
EXTT4=118bpm
EXTT5=109bpm
EXTT6=125bpm
EXTT7=126bpm
EXTT8=121bpm
EXTT9=124bpm
EXTT10=137bpm
EXTT11=118bpm
EXTT12=129bpm
EXTT13=117bpm
EXTT14=134bpm
EXTT15=140bpm
EXTT16=175bpm 
EXTT17=166bpm
EXTT18=149bpm
EXTT19=106bpm 
PLAYORDER=
